<svg xmlns="http://www.w3.org/2000/svg" viewBox="0 0 1200 630" role="img">
  <!-- Placeholder illustration: a big cooking pot and falling leaves.
       Real photos come later, from the charity, with consent. -->
  <rect width="1200" height="630" fill="#b45309"/>
  <circle cx="600" cy="660" r="430" fill="#92400e"/>
  <rect x="400" y="330" width="400" height="200" rx="40" fill="#1c1917"/>
  <rect x="360" y="330" width="480" height="36" rx="18" fill="#292524"/>
  <path d="M540 290c0-40 35-40 35-80" stroke="#fdfbf7" stroke-width="22" fill="none" stroke-linecap="round" opacity="0.9"/>
  <path d="M630 290c0-50 35-50 35-100" stroke="#fdfbf7" stroke-width="22" fill="none" stroke-linecap="round" opacity="0.9"/>
  <path d="M280 180c40-10 70 20 70 60-40 10-70-20-70-60Z" fill="#fcd34d"/>
  <path d="M880 140c40-10 70 20 70 60-40 10-70-20-70-60Z" fill="#fde68a"/>
  <path d="M960 300c30-8 55 15 55 45-30 8-55-15-55-45Z" fill="#fcd34d"/>
</svg>
